HIERARCHY
ROOT Hips
{
	OFFSET	0.00	0.00	0.00
	CHANNELS 6 Xposition Yposition Zposition Zrotation Xrotation Yrotation
	JOINT LeftUpLeg
	{
		OFFSET	 0.126116	-0.014019	-0.065224
		CHANNELS 3 Zrotation Xrotation Yrotation
		JOINT LeftLeg
		{
			OFFSET	 0.000000	 0.000000	 0.569914
			CHANNELS 3 Zrotation Xrotation Yrotation
			JOINT LeftFoot
			{
				OFFSET	 0.000000	 0.000000	 0.544423
				CHANNELS 3 Zrotation Xrotation Yrotation
				JOINT LeftToeBase
				{
					OFFSET	 0.000000	 0.000000	 0.207117
					CHANNELS 3 Zrotation Xrotation Yrotation
					End Site
					{
						OFFSET	 0.000000	 0.000000	 0.207117
					}
				}
			}
		}
	}
	JOINT RightUpLeg
	{
		OFFSET	-0.124023	-0.008373	-0.065224
		CHANNELS 3 Zrotation Xrotation Yrotation
		JOINT RightLeg
		{
			OFFSET	 0.000000	 0.000000	 0.570047
			CHANNELS 3 Zrotation Xrotation Yrotation
			JOINT RightFoot
			{
				OFFSET	 0.000000	 0.000000	 0.544354
				CHANNELS 3 Zrotation Xrotation Yrotation
				JOINT RightToeBase
				{
					OFFSET	 0.000000	 0.000000	 0.207540
					CHANNELS 3 Zrotation Xrotation Yrotation
					End Site
					{
						OFFSET	 0.000000	 0.000000	 0.207540
					}
				}
			}
		}
	}
	JOINT Spine
	{
		OFFSET	 0.000184	-0.007763	 0.117403
		CHANNELS 3 Zrotation Xrotation Yrotation
		JOINT Spine1
		{
			OFFSET	 0.000000	 0.000000	 0.137269
			CHANNELS 3 Zrotation Xrotation Yrotation
			JOINT Spine2
			{
				OFFSET	 0.000000	 0.000000	 0.156879
				CHANNELS 3 Zrotation Xrotation Yrotation
				JOINT LeftShoulder
				{
					OFFSET	 0.080501	-0.002496	 0.160144
					CHANNELS 3 Zrotation Xrotation Yrotation
					JOINT LeftArm
					{
						OFFSET	 0.000000	 0.000000	 0.164363
						CHANNELS 3 Zrotation Xrotation Yrotation
						JOINT LeftForeArm
						{
							OFFSET	 0.000000	 0.000000	 0.364576
							CHANNELS 3 Zrotation Xrotation Yrotation
							JOINT LeftHand
							{
								OFFSET	 0.000000	 0.000000	 0.360812
								CHANNELS 3 Zrotation Xrotation Yrotation
								JOINT LeftHandIndex1
								{
									OFFSET	 0.000000	 0.000000	 0.086006
									CHANNELS 3 Zrotation Xrotation Yrotation
									JOINT LeftHandIndex2
									{
										OFFSET	 0.000000	 0.000000	 0.047236
										CHANNELS 3 Zrotation Xrotation Yrotation
										JOINT LeftHandIndex3
										{
											OFFSET	-0.004284	-0.000551	 0.038166
											CHANNELS 3 Zrotation Xrotation Yrotation
											End Site
											{
												OFFSET	-0.004284	-0.000551	 0.038166
											}
										}
									}
								}
							}
						}
					}
				}
				JOINT Neck
				{
					OFFSET	 0.000000	 0.000000	 0.176489
					CHANNELS 3 Zrotation Xrotation Yrotation
					JOINT Head
					{
						OFFSET	 0.000000	-0.001747	 0.077940
						CHANNELS 3 Zrotation Xrotation Yrotation
						End Site
						{
							OFFSET	 0.000000	-0.001747	 0.077940
						}
					}
				}
				JOINT RightShoulder
				{
					OFFSET	-0.080363	 0.000306	 0.159706
					CHANNELS 3 Zrotation Xrotation Yrotation
					JOINT RightArm
					{
						OFFSET	 0.000000	 0.000000	 0.164196
						CHANNELS 3 Zrotation Xrotation Yrotation
						JOINT RightForeArm
						{
							OFFSET	 0.000000	 0.000000	 0.365611
							CHANNELS 3 Zrotation Xrotation Yrotation
							JOINT RightHand
							{
								OFFSET	 0.000000	 0.000000	 0.360648
								CHANNELS 3 Zrotation Xrotation Yrotation
								JOINT RightHandIndex1
								{
									OFFSET	 0.000000	 0.000000	 0.069977
									CHANNELS 3 Zrotation Xrotation Yrotation
									JOINT RightHandIndex2
									{
										OFFSET	 0.000000	 0.000000	 0.052305
										CHANNELS 3 Zrotation Xrotation Yrotation
										JOINT RightHandIndex3
										{
											OFFSET	 0.009002	-0.000782	 0.042196
											CHANNELS 3 Zrotation Xrotation Yrotation
											End Site
											{
												OFFSET	 0.009002	-0.000782	 0.042196
											}
										}
									}
								}
							}
						}
					}
				}
			}
		}
	}
}
MOTION
Frames:    9
Frame Time: 0.03333334
 0.000187	 0.017257	 1.305521	-0.001954	 0.004781	 0.127319	 9.402940	-2.176387	 176.983000	 1.476424	-11.700650	-0.682652	-6.744936	 64.021920	 0.887938	-2.385833	 28.452760	 0.000004	-9.537128	-2.306795	-177.234300	-1.464665	-11.559280	 0.661781	 6.452876	 63.834630	-0.726779	 2.384658	 28.388730	 0.000004	 15.043990	 2.720511	 0.244613	-1.583810	 3.655906	-0.590062	 4.799273	-4.571588	 1.033938	-91.776100	 78.527450	 179.999900	 40.431970	 31.693440	-55.639070	-25.508960	 3.089642	-9.220790	-20.286330	-36.432030	 1.601871	-2.635965	 4.993658	 6.788941	-5.165319	 0.784187	 3.516649	-5.225038	 0.466231	 0.424329	-0.000002	-3.783157	-0.089647	 4.667991	 4.839120	-0.197366	 89.782010	 78.203900	-179.999900	-1.251621	 11.979410	 113.225500	-16.974790	 2.779846	 9.344615	-12.299870	-34.752670	-14.207250	 6.112037	 4.509576	-0.364401	 4.968462	 1.518543	-9.347576	 5.168945	 0.703820	 2.021906
 0.000187	 0.017200	 1.306349	-0.001954	 0.004781	 0.127319	 9.591596	-2.188007	 176.971300	 1.476421	-11.700790	-0.682659	-6.730736	 63.882660	 0.879205	-2.385833	 28.452760	 0.000004	-9.725808	-2.317514	-177.223200	-1.464659	-11.559360	 0.661785	 6.438601	 63.696020	-0.717587	 2.384658	 28.388730	 0.000004	 17.097630	 2.720511	 0.244612	-1.583809	 3.655919	-0.590057	 4.799259	-4.571596	 1.033938	-91.776120	 78.527450	 180.000000	 40.441440	 31.700180	-55.656570	-23.970880	 2.603408	-8.490638	-18.067050	-38.796870	 3.393281	-2.635965	 4.993658	 6.788941	-5.165319	 0.784187	 3.516649	-5.225038	 0.466231	 0.424329	-0.000002	-3.783157	-0.089647	 4.667991	 4.839119	-0.197366	 89.782030	 78.203870	-180.000000	-1.312029	 12.041310	 113.190700	-18.567160	 2.291267	 8.607738	-15.075520	-36.705950	-16.296450	 6.112037	 4.509576	-0.364401	 4.968462	 1.518543	-9.347576	 5.168945	 0.703820	 2.021906
 0.000200	 0.017134	 1.307082	-0.001954	 0.004781	 0.127319	 9.773799	-2.199201	 176.960100	 1.476421	-11.700780	-0.682661	-6.716980	 63.748090	 0.870761	-2.385833	 28.452760	 0.000004	-9.908005	-2.327943	-177.212600	-1.464662	-11.559520	 0.661796	 6.424868	 63.562180	-0.708767	 2.384658	 28.388730	 0.000004	 18.917940	 2.720512	 0.244613	-1.583810	 3.655914	-0.590037	 4.799269	-4.571592	 1.033926	-91.776130	 78.527430	 180.000000	 40.462390	 31.716430	-55.693820	-22.437340	 2.165539	-7.751789	-15.938610	-40.449550	 5.118679	-2.635965	 4.993658	 6.788941	-5.165319	 0.784187	 3.516649	-5.225038	 0.466231	 0.424329	-0.000002	-3.783157	-0.089647	 4.667991	 4.839119	-0.197366	 89.781980	 78.203890	-179.999900	-1.300892	 12.123970	 113.153700	-20.157110	 1.848448	 7.857477	-17.575290	-37.984940	-18.217160	 6.112037	 4.509576	-0.364401	 4.968462	 1.518543	-9.347576	 5.168945	 0.703820	 2.021906
 0.000221	 0.017058	 1.307771	-0.001954	 0.004781	 0.127319	 9.958307	-2.210563	 176.948700	 1.476429	-11.700760	-0.682658	-6.703022	 63.611840	 0.862214	-2.385833	 28.452760	 0.000004	-10.092530	-2.338377	-177.201900	-1.464661	-11.559370	 0.661785	 6.410840	 63.426510	-0.699764	 2.384658	 28.388730	 0.000004	 20.593240	 2.720512	 0.244612	-1.583808	 3.655918	-0.590060	 4.799256	-4.571595	 1.033941	-91.776050	 78.527420	 179.999900	 40.495660	 31.746180	-55.757730	-20.836690	 1.752514	-6.963057	-13.876290	-41.474660	 6.748953	-2.635965	 4.993658	 6.788941	-5.165319	 0.784187	 3.516649	-5.225038	 0.466231	 0.424329	-0.000002	-3.783157	-0.089647	 4.668018	 4.839134	-0.197367	 89.782030	 78.203890	-180.000000	-1.260909	 12.212600	 113.107700	-21.815910	 1.433321	 7.062427	-19.831490	-38.664170	-19.931240	 6.112037	 4.509576	-0.364401	 4.968462	 1.518543	-9.347576	 5.168945	 0.703820	 2.021906
 0.000245	 0.016978	 1.308521	-0.001954	 0.004781	 0.127319	 10.156730	-2.222790	 176.936500	 1.476422	-11.700670	-0.682653	-6.687960	 63.465260	 0.853026	-2.385833	 28.452760	 0.000004	-10.290950	-2.349710	-177.190400	-1.464662	-11.559340	 0.661785	 6.395798	 63.280710	-0.690165	 2.384658	 28.388730	 0.000004	 22.198320	 2.720512	 0.244612	-1.583814	 3.655928	-0.590026	 4.799264	-4.571603	 1.033921	-91.776120	 78.527420	 180.000000	 40.538080	 31.790500	-55.841660	-19.063380	 1.353693	-6.079237	-11.857510	-41.846810	 8.240623	-2.635965	 4.993658	 6.788941	-5.165319	 0.784187	 3.516649	-5.225038	 0.466231	 0.424329	-0.000002	-3.783157	-0.089647	 4.667993	 4.839118	-0.197366	 89.781970	 78.203900	-179.999900	-1.417763	 12.301980	 113.026600	-23.656990	 1.029901	 6.167037	-21.831040	-38.701860	-21.369540	 6.112037	 4.509576	-0.364401	 4.968462	 1.518543	-9.347576	 5.168945	 0.703820	 2.021906
 0.000261	 0.016913	 1.309313	-0.001954	 0.004781	 0.127319	 10.345990	-2.234461	 176.925000	 1.476423	-11.700530	-0.682643	-6.673587	 63.325460	 0.844271	-2.385833	 28.452760	 0.000004	-10.480220	-2.360478	-177.179500	-1.464665	-11.559150	 0.661773	 6.381401	 63.141550	-0.680967	 2.384658	 28.388730	 0.000004	 23.530830	 2.720512	 0.244613	-1.583813	 3.655927	-0.590017	 4.799253	-4.571602	 1.033920	-91.776130	 78.527430	 180.000000	 40.586160	 31.837640	-55.936320	-17.326850	 1.017872	-5.197964	-10.204520	-41.511610	 9.301346	-2.635965	 4.993658	 6.788941	-5.165319	 0.784187	 3.516649	-5.225038	 0.466231	 0.424329	-0.000002	-3.783157	-0.089647	 4.667991	 4.839119	-0.197366	 89.781940	 78.203890	-179.999900	-1.967854	 12.332110	 112.890900	-25.459510	 0.691962	 5.276958	-23.279200	-38.112020	-22.267120	 6.112037	 4.509576	-0.364401	 4.968462	 1.518543	-9.347576	 5.168945	 0.703820	 2.021906
 0.000263	 0.016869	 1.310158	-0.001953	 0.004778	 0.127322	 10.521080	-2.245502	 176.914300	 1.476421	-11.700800	-0.682662	-6.660336	 63.196300	 0.836258	-2.385833	 28.452760	 0.000004	-10.655330	-2.370675	-177.169500	-1.464668	-11.559380	 0.661787	 6.368129	 63.013000	-0.672573	 2.384658	 28.388730	 0.000004	 24.583210	 2.720505	 0.244611	-1.583812	 3.655927	-0.590027	 4.799266	-4.571595	 1.033922	-91.776120	 78.527430	 179.999900	 40.636160	 31.882520	-56.031670	-15.684640	 0.752297	-4.356016	-8.956798	-40.626670	 9.902585	-2.635965	 4.993658	 6.788941	-5.165319	 0.784187	 3.516649	-5.225038	 0.466231	 0.424329	-0.000002	-3.783157	-0.089647	 4.667991	 4.839120	-0.197366	 89.782020	 78.203900	-180.000000	-2.959267	 12.288220	 112.704400	-27.161940	 0.423918	 4.427257	-24.332490	-36.995790	-22.594190	 6.112037	 4.509576	-0.364401	 4.968462	 1.518543	-9.347576	 5.168945	 0.703820	 2.021906
 0.000256	 0.016837	 1.311203	-0.001956	 0.004783	 0.127321	 10.714500	-2.257569	 176.902600	 1.476421	-11.700770	-0.682659	-6.645585	 63.053510	 0.827353	-2.385833	 28.452760	 0.000004	-10.848730	-2.381774	-177.158400	-1.464664	-11.559250	 0.661779	 6.353409	 62.870870	-0.663258	 2.384658	 28.388730	 0.000004	 25.535980	 2.720519	 0.244608	-1.583812	 3.655895	-0.590020	 4.799265	-4.571583	 1.033915	-91.776170	 78.527450	 180.000000	 40.699970	 31.942070	-56.153440	-13.835660	 0.514811	-3.402502	-7.908742	-39.046290	 10.110360	-2.635965	 4.993658	 6.788941	-5.165319	 0.784187	 3.516649	-5.225038	 0.466231	 0.424329	-0.000002	-3.783157	-0.089647	 4.667993	 4.839118	-0.197366	 89.782140	 78.203900	 180.000000	-4.568885	 12.168150	 112.446000	-29.076620	 0.182805	 3.459951	-25.131650	-35.190840	-22.411650	 6.112037	 4.509576	-0.364401	 4.968462	 1.518543	-9.347576	 5.168945	 0.703820	 2.021906
 0.000245	 0.016816	 1.312179	-0.001956	 0.004783	 0.127321	 10.884940	-2.268128	 176.892200	 1.476425	-11.700540	-0.682645	-6.632555	 62.927570	 0.819480	-2.385833	 28.452760	 0.000004	-11.019160	-2.391657	-177.148600	-1.464661	-11.559270	 0.661781	 6.340450	 62.745670	-0.655095	 2.384658	 28.388730	 0.000004	 26.186860	 2.720510	 0.244610	-1.583811	 3.655921	-0.590031	 4.799259	-4.571602	 1.033923	-91.776100	 78.527470	 179.999900	 40.761500	 32.004680	-56.275530	-12.181260	 0.353775	-2.539567	-7.258466	-37.169160	 9.901896	-2.635965	 4.993658	 6.788941	-5.165319	 0.784187	 3.516649	-5.225038	 0.466231	 0.424329	-0.000002	-3.783157	-0.089647	 4.667991	 4.839119	-0.197366	 89.782090	 78.203890	 180.000000	-6.305995	 12.048810	 112.141700	-30.770620	 0.020822	 2.589433	-25.501080	-33.170630	-21.832820	 6.112037	 4.509576	-0.364401	 4.968462	 1.518543	-9.347576	 5.168945	 0.703820	 2.021906
